:version 1.10
:name ASF
:units
  mass 1
  length 1
  angle deg
:documentation
  ASF file generated by Kaydara
:root
  axis xyz
  order  tx ty tz rx ry rz
  position 0 0 0
  orientation 0 0 0
:bonedata
  begin
    id 1
    name lfemurDummy
    direction 0.61522 -0.761478 0.204097
    length 5.68318
    axis 0 -0 0 xyz
  end
  begin
    id 2
    name lfemur
    direction 0.34202 -0.939693 -5.84747e-008
    length 16.9147
    axis 0 -0 20 xyz
    dof rx ry rz
    limits( -inf , inf )
( -inf , inf )
( -inf , inf )

  end
  begin
    id 3
    name ltibia
    direction 0.34202 -0.939693 1.20839e-009
    length 18.0532
    axis 0 -0 20 xyz
    dof rz ry rx
    limits( -inf , inf )
( -inf , inf )
( -inf , inf )

  end
  begin
    id 4
    name lfoot
    direction 0.0841971 -0.23133 0.969225
    length 5.23822
    axis -90 7.62852e-016 20 xyz
    dof ry rx rz
    limits( -inf , inf )
( -inf , inf )
( -inf , inf )

  end
  begin
    id 5
    name ltoes
    direction 0 0 0
    length 0
    axis 0 0 0 xyz
    dof rz ry rx
    limits( -inf , inf )
( -inf , inf )
( -inf , inf )

  end
  begin
    id 6
    name rfemurDummy
    direction -0.625247 -0.75382 0.202044
    length 5.74091
    axis 0 -0 0 xyz
  end
  begin
    id 7
    name rfemur
    direction -0.34202 -0.939693 -1.47013e-008
    length 16.4922
    axis 0 -0 -20 xyz
    dof rx ry rz
    limits( -inf , inf )
( -inf , inf )
( -inf , inf )

  end
  begin
    id 8
    name rtibia
    direction -0.34202 -0.939693 -7.74345e-010
    length 18.2421
    axis 0 -0 -20 xyz
    dof rz ry rx
    limits( -inf , inf )
( -inf , inf )
( -inf , inf )

  end
  begin
    id 9
    name rfoot
    direction -0.124331 -0.341598 0.931586
    length 5.45787
    axis -90 -7.62852e-016 -20 xyz
    dof ry rx rz
    limits( -inf , inf )
( -inf , inf )
( -inf , inf )

  end
  begin
    id 10
    name rtoes
    direction 0 0 0
    length 0
    axis 0 0 0 xyz
    dof rz ry rx
    limits( -inf , inf )
( -inf , inf )
( -inf , inf )

  end
  begin
    id 11
    name lowerbackDummy
    direction 0 0 0
    length 0
    axis 0 -0 0 xyz
  end
  begin
    id 12
    name lowerback
    direction -0.0218484 0.994884 -0.0986304
    length 4.45607
    axis 0 -0 0 xyz
    dof rx ry rz
    limits( -inf , inf )
( -inf , inf )
( -inf , inf )

  end
  begin
    id 13
    name upperback
    direction -0.00973057 0.999717 -0.0217111
    length 4.47449
    axis 0 -0 0 xyz
    dof rx ry rz
    limits( -inf , inf )
( -inf , inf )
( -inf , inf )

  end
  begin
    id 14
    name thorax
    direction -0.000928171 0.999699 0.0245198
    length 4.50973
    axis 0 -0 0 xyz
    dof rx ry rz
    limits( -inf , inf )
( -inf , inf )
( -inf , inf )

  end
  begin
    id 15
    name rclavicle
    direction -0.9009 0.425937 -0.0834055
    length 7.28587
    axis 0 -0 0 xyz
    dof rx ry rz
    limits( -inf , inf )
( -inf , inf )
( -inf , inf )

  end
  begin
    id 16
    name rhumerus
    direction -1 -2.23604e-007 -1.42637e-007
    length 13.5704
    axis 180 30 90 xyz
    dof rx ry rz
    limits( -inf , inf )
( -inf , inf )
( -inf , inf )

  end
  begin
    id 17
    name rradius
    direction -1 5.68281e-008 -4.4952e-007
    length 8.06782
    axis 180 30 90 xyz
    dof rz ry rx
    limits( -inf , inf )
( -inf , inf )
( -inf , inf )

  end
  begin
    id 18
    name rwrist
    direction -1 1.51393e-007 1.38143e-007
    length 4.03391
    axis -90 -90 0 xyz
    dof rz rx ry
    limits( -inf , inf )
( -inf , inf )
( -inf , inf )

  end
  begin
    id 19
    name rthumb
    direction 0 0 0
    length 0
    axis 0 0 0 xyz
    dof ry rx rz
    limits( -inf , inf )
( -inf , inf )
( -inf , inf )

  end
  begin
    id 20
    name rhand
    direction -1 -3.34077e-007 -5.59631e-007
    length 1.29744
    axis -90 -90 0 xyz
    dof ry rx rz
    limits( -inf , inf )
( -inf , inf )
( -inf , inf )

  end
  begin
    id 21
    name rfingers
    direction 0 0 0
    length 0
    axis 0 0 0 xyz
    dof rz ry rx
    limits( -inf , inf )
( -inf , inf )
( -inf , inf )

  end
  begin
    id 22
    name lclavicle
    direction 0.940017 0.332249 -0.0773232
    length 8.29589
    axis 0 -0 0 xyz
    dof rx ry rz
    limits( -inf , inf )
( -inf , inf )
( -inf , inf )

  end
  begin
    id 23
    name lhumerus
    direction 1 7.41158e-008 -1.44768e-008
    length 12.0042
    axis 180 -30 -90 xyz
    dof rx ry rz
    limits( -inf , inf )
( -inf , inf )
( -inf , inf )

  end
  begin
    id 24
    name lradius
    direction 1 -1.32972e-007 3.10821e-007
    length 8.1902
    axis 180 -30 -90 xyz
    dof rz ry rx
    limits( -inf , inf )
( -inf , inf )
( -inf , inf )

  end
  begin
    id 25
    name lwrist
    direction 1 3.08957e-007 4.01394e-007
    length 4.09509
    axis -90 90 0 xyz
    dof rz rx ry
    limits( -inf , inf )
( -inf , inf )
( -inf , inf )

  end
  begin
    id 26
    name lthumb
    direction 0 0 0
    length 0
    axis 0 0 0 xyz
    dof ry rx rz
    limits( -inf , inf )
( -inf , inf )
( -inf , inf )

  end
  begin
    id 27
    name lhand
    direction 1 -1.64125e-007 -6.99514e-007
    length 1.37229
    axis -90 90 0 xyz
    dof ry rx rz
    limits( -inf , inf )
( -inf , inf )
( -inf , inf )

  end
  begin
    id 28
    name lfingers
    direction 0 0 0
    length 0
    axis 0 0 0 xyz
    dof rz ry rx
    limits( -inf , inf )
( -inf , inf )
( -inf , inf )

  end
  begin
    id 29
    name lowerneck
    direction -0.030798 0.998024 0.0547665
    length 3.93918
    axis 0 -0 0 xyz
    dof rx ry rz
    limits( -inf , inf )
( -inf , inf )
( -inf , inf )

  end
  begin
    id 30
    name upperneck
    direction 0.0531588 0.996611 -0.0627736
    length 3.95491
    axis 0 -0 0 xyz
    dof rx ry rz
    limits( -inf , inf )
( -inf , inf )
( -inf , inf )

  end
  begin
    id 31
    name head
    direction 0 0 0
    length 0
    axis 0 0 0 xyz
    dof rx ry rz
    limits( -inf , inf )
( -inf , inf )
( -inf , inf )

  end
:hierarchy
  begin
    root lfemurDummy rfemurDummy lowerbackDummy
    lfemurDummy lfemur
    lfemur ltibia
    ltibia lfoot
    lfoot ltoes
    rfemurDummy rfemur
    rfemur rtibia
    rtibia rfoot
    rfoot rtoes
    lowerbackDummy lowerback
    lowerback upperback
    upperback thorax
    thorax rclavicle lclavicle lowerneck
    rclavicle rhumerus
    rhumerus rradius
    rradius rwrist
    rwrist rthumb rhand
    rhand rfingers
    lclavicle lhumerus
    lhumerus lradius
    lradius lwrist
    lwrist lthumb lhand
    lhand lfingers
    lowerneck upperneck
    upperneck head
  end

:SAMPLES-PER-SECOND 30
:FULLY-SPECIFIED
:DEGREES
104
root  -0.655157782 40.71777824 7.177155412 8.397003174 -4.673995972 -3.417999268
lowerback  14.66819954 5.760290146 -0.2579460144
upperback  4.081739902 7.300930023 -4.818769932
thorax  -3.221669912 3.630389929 -6.166950226
lowerneck  -4.299650192 7.174960136 -5.57945013
upperneck  23.83769989 9.363120079 6.197100163
head  7.423349857 4.537759781 3.629980087
lclavicle  0 -9.442270133e-015 7.951389973e-016
lhumerus  -10.97200012 -2.548830032 76.56430054
lradius  2.927676679e-031 -1.974222201e-031 146.0070038
lwrist  -1.412450015e-030 -0 16.56049919
lhand  -1.496451383e-031 -27.76390076 20.11240005
lfingers  90 7.125020027 -90
lthumb  89.89689403 5.08795885 91.16245106
rclavicle  0 -9.442270133e-015 7.951389973e-016
rhumerus  -7.00221014 7.282310009 -67.70429993
rradius  -7.070729955e-032 3.459608622e-031 101.5510025
rwrist  1.059337512e-030 -1.765562519e-031 -3.313019991
rhand  -7.920061211e-032 -33.2840004 9.303460121
rfingers  -90 -7.125020027 -90
rthumb  -92.93752616 -24.25625642 -97.11982154
rfemur  -15.62110043 9.980079651 9.805820465
rtibia  -0 0 45.03369904
rfoot  -0 -14.34010029 -19.35110092
rtoes  5.373923086 19.29304026 -105.8922705
lfemur  -41.5155983 -6.251100063 -1.051839948
ltibia  -0 0 38.39500046
lfoot  -0 10.45940018 -7.970129967
ltoes  -4.250644065 -19.5611806 -102.515957
105
root  -0.5400822388 40.75822305 7.013644571 8.587005615 -5.947006226 -3.279998779
lowerback  14.92529964 5.538829803 -0.2248280048
upperback  4.149169922 7.005579948 -4.729819775
thorax  -3.325400114 3.478950024 -6.070320129
lowerneck  -5.140739918 7.500170231 -5.553899765
upperneck  23.76880074 10.01029968 5.400599957
head  7.564939976 4.771550179 3.446540117
lclavicle  0 -9.442270133e-015 7.951389973e-016
lhumerus  -10.22130013 -1.613549948 75.67919922
lradius  2.941115013e-031 -1.954145982e-031 146.3990021
lwrist  0 8.827812596e-032 16.99749947
lhand  -1.496451383e-031 -27.76390076 20.11240005
lfingers  90 7.125020027 -90
lthumb  89.89689403 5.08795885 91.16245106
rclavicle  0 -9.442270133e-015 7.951389973e-016
rhumerus  -7.504370213 7.621660233 -68.10540009
rradius  -6.925749281e-032 3.462540109e-031 101.310997
rwrist  1.059337512e-030 -0 -3.534879923
rhand  -7.920061211e-032 -33.2840004 9.303460121
rfingers  -90 -7.125020027 -90
rthumb  -92.93752616 -24.25625642 -97.11982154
rfemur  -16.95599937 10.08889961 9.435429573
rtibia  -0 0 45.88539886
rfoot  -0 -15.80920029 -20.38750076
rtoes  5.373923086 19.29304026 -105.8922705
lfemur  -41.65639877 -4.867269993 -1.80321002
ltibia  -0 0 41.80039978
lfoot  -0 9.717320442 -9.336400032
ltoes  -4.250644065 -19.5611806 -102.515957
106
root  -0.4518333382 40.76288779 6.853666831 8.62600708 -7.315002441 -3.117996216
lowerback  15.17490005 5.406209946 -0.4228489995
upperback  4.26432991 6.794769764 -4.607540131
thorax  -3.396840096 3.369930029 -5.81719017
lowerneck  -5.867159843 7.799809933 -5.440040112
upperneck  23.6140995 10.59469986 4.660429955
head  7.667610168 4.987030029 3.258569956
lclavicle  0 -9.442270133e-015 7.951389973e-016
lhumerus  -9.496080399 -0.8017309904 74.67510223
lradius  2.95218613e-031 -1.937379955e-031 146.7250061
lwrist  -7.062250077e-031 -0 17.48920059
lhand  -1.496451383e-031 -27.76390076 20.11240005
lfingers  90 7.125020027 -90
lthumb  89.89689403 5.08795885 91.16245106
rclavicle  0 -9.442270133e-015 7.951389973e-016
rhumerus  -7.857610226 7.887959957 -68.38480377
rradius  -6.737704211e-032 3.466248326e-031 101
rwrist  1.059337512e-030 -3.531125038e-031 -3.587150097
rhand  -7.920061211e-032 -33.2840004 9.303460121
rfingers  -90 -7.125020027 -90
rthumb  -92.93752616 -24.25625642 -97.11982154
rfemur  -18.05789948 10.60919952 9.122540474
rtibia  -0 0 46.84740067
rfoot  -0 -17.19000053 -20.68560028
rtoes  5.373923086 19.29304026 -105.8922705
lfemur  -41.66199875 -3.346250057 -2.576920033
ltibia  -0 0 45.3451004
lfoot  -0 9.214590073 -10.14920044
ltoes  -4.250644065 -19.5611806 -102.515957
107
root  -0.3525622248 40.74044415 6.703444353 8.503005981 -8.623001099 -2.679000854
lowerback  15.36709976 5.23774004 -0.8386890292
upperback  4.403429985 6.504079819 -4.532400131
thorax  -3.435179949 3.222609997 -5.469970226
lowerneck  -6.413750172 8.143059731 -5.299479961
upperneck  23.45499992 11.20979977 3.992959976
head  7.736660004 5.224589825 3.085700035
lclavicle  0 -9.442270133e-015 7.951389973e-016
lhumerus  -8.921569824 0.04675830156 73.62709808
lradius  2.960510445e-031 -1.924635535e-031 146.9720001
lwrist  0 -8.827812596e-032 18.27759933
lhand  -1.496451383e-031 -27.76390076 20.11240005
lfingers  90 7.125020027 -90
lthumb  89.89689403 5.08795885 91.16245106
rclavicle  0 -9.442270133e-015 7.951389973e-016
rhumerus  -8.152199745 8.313090324 -68.5345993
rradius  -6.585186636e-032 3.469178175e-031 100.7480011
rwrist  7.062250077e-031 -0 -3.598969936
rhand  -7.920061211e-032 -33.2840004 9.303460121
rfingers  -90 -7.125020027 -90
rthumb  -92.93752616 -24.25625642 -97.11982154
rfemur  -18.90469933 10.97360039 8.525150299
rtibia  -0 0 47.87820053
rfoot  -0 -18.08340073 -20.01460075
rtoes  5.373923086 19.29304026 -105.8922705
lfemur  -41.53730011 -1.881289959 -3.716010094
ltibia  -0 0 48.94869995
lfoot  -0 8.514309883 -10.96560001
ltoes  -4.250644065 -19.5611806 -102.515957
108
root  -0.2078544436 40.70400028 6.559577702 8.281005859 -9.516998291 -1.839004517
lowerback  15.54969978 4.895219803 -1.259250045
upperback  4.549980164 5.980460167 -4.575749874
thorax  -3.459759951 2.961930037 -5.201990128
lowerneck  -6.829160213 8.471340179 -5.019730091
upperneck  23.31990051 11.78989983 3.266649961
head  7.809800148 5.449779987 2.868350029
lclavicle  0 -9.442270133e-015 7.951389973e-016
lhumerus  -8.242030144 0.8421249986 72.542099
lradius  2.963328913e-031 -1.920293152e-031 147.0559998
lwrist  0 8.827812596e-032 19.1909008
lhand  -1.496451383e-031 -27.76390076 20.11240005
lfingers  90 7.125020027 -90
lthumb  89.89689403 5.08795885 91.16245106
rclavicle  0 -9.442270133e-015 7.951389973e-016
rhumerus  -8.423080444 8.754529953 -68.6937027
rradius  -6.52159757e-032 3.470379185e-031 100.6429977
rwrist  1.412450015e-030 -1.765562519e-031 -3.641870022
rhand  -7.920061211e-032 -33.2840004 9.303460121
rfingers  -90 -7.125020027 -90
rthumb  -92.93752616 -24.25625642 -97.11982154
rfemur  -19.45840073 10.84430027 7.509180069
rtibia  -0 0 48.88949966
rfoot  -0 -18.3071003 -18.61339951
rtoes  5.373923086 19.29304026 -105.8922705
lfemur  -41.42480087 -0.9260830283 -5.313220024
ltibia  -0 0 52.46760178
lfoot  -0 7.851069927 -11.68019962
ltoes  -4.250644065 -19.5611806 -102.515957
109
root  -0.1099033384 40.62066566 6.415799659 7.968002319 -10.61700439 -1.582000732
lowerback  15.81910038 4.703249931 -1.554530025
upperback  4.634930134 5.678339958 -4.346280098
thorax  -3.590219975 2.806440115 -4.762090206
lowerneck  -6.878849983 8.738400459 -4.840340137
upperneck  22.99029922 12.26990032 2.543279886
head  7.755700111 5.628499985 2.634150028
lclavicle  0 -9.442270133e-015 7.951389973e-016
lhumerus  -7.602829933 1.421609998 71.53569794
lradius  2.959670587e-031 -1.925926803e-031 146.9470062
lwrist  -7.062250077e-031 8.827812596e-032 19.92700005
lhand  -1.496451383e-031 -27.76390076 20.11240005
lfingers  90 7.125020027 -90
lthumb  89.89689403 5.08795885 91.16245106
rclavicle  0 -9.442270133e-015 7.951389973e-016
rhumerus  -8.686189651 9.172519684 -68.76519775
rradius  -6.50282113e-032 3.470731509e-031 100.6119995
rwrist  1.412450015e-030 -0 -3.747879982
rhand  -7.920061211e-032 -33.2840004 9.303460121
rfingers  -90 -7.125020027 -90
rthumb  -92.93752616 -24.25625642 -97.11982154
rfemur  -19.7852993 11.54759979 7.269120216
rtibia  -0 0 49.78110123
rfoot  -0 -18.09609985 -16.92239952
rtoes  5.373923086 19.29304026 -105.8922705
lfemur  -41.01010132 0.2835670114 -6.137450218
ltibia  -0 0 55.80860138
lfoot  -0 7.394800186 -12.30039978
ltoes  -4.250644065 -19.5611806 -102.515957
